<?xml version="1.0" encoding="iso-8859-1"?>
<!-- Generator: Adobe Illustrator 19.0.0, SVG Export Plug-In . SVG Version: 6.00 Build 0)  -->
<svg version="1.1" id="Capa_1" xmlns="http://www.w3.org/2000/svg" xmlns:xlink="http://www.w3.org/1999/xlink" x="0px" y="0px"
	 viewBox="0 0 379.194 379.194" style="enable-background:new 0 0 379.194 379.194;" xml:space="preserve">
<g>
	<g>
		<circle cx="189.597" cy="357.194" r="22"/>
	</g>
</g>
<g>
	<g>
		<path d="M330.197,115.616l-4.931-2.465l0.677-6.764c0.501-4.207,0.785-8.438,0.849-12.674C326.814,41.979,284.893,0.022,233.159,0
			c-18.225-0.008-36.056,5.301-51.309,15.276c-14.825,9.764-26.626,23.477-34.072,39.591l-2.651,5.714l-6.176-1.235
			c-4.846-0.931-9.771-1.39-14.706-1.37c-15.652-0.019-30.869,5.151-43.27,14.7c-12.256,9.4-21.297,22.368-25.878,37.118l-1.045,3.4
			l-3.219,1.5c-6.517,2.988-12.46,7.095-17.559,12.134c-23.292,23.253-23.322,60.986-0.069,84.277
			c11.189,11.208,26.38,17.5,42.217,17.489h228.35c32.895,0.041,59.595-26.593,59.636-59.488
			C363.436,146.404,350.557,125.66,330.197,115.616z"/>
	</g>
</g>
<g>
	<g>
		<circle cx="349.597" cy="357.194" r="22"/>
	</g>
</g>
<g>
	<g>
		<circle cx="29.597" cy="357.194" r="22"/>
	</g>
</g>
<g>
	<g>
		<rect x="181.597" y="236.594" width="16" height="91"/>
	</g>
</g>
<g>
	<g>
		<path d="M299.597,349.594c-12.131,0-22-10.273-22-22.4v-90.6h-16v90.6c0,20.953,17.047,38.4,38,38.4h20v-16H299.597z"/>
	</g>
</g>
<g>
	<g>
		<path d="M101.597,236.594v90.6c0,12.131-9.869,22.4-22,22.4h-20v16h20c20.953,0,38-17.451,38-38.4v-90.6H101.597z"/>
	</g>
</g>
<g>
</g>
<g>
</g>
<g>
</g>
<g>
</g>
<g>
</g>
<g>
</g>
<g>
</g>
<g>
</g>
<g>
</g>
<g>
</g>
<g>
</g>
<g>
</g>
<g>
</g>
<g>
</g>
<g>
</g>
</svg>
